<?xml version="1.0" encoding="utf-8"?>
<!-- Generator: Adobe Illustrator 21.0.2, SVG Export Plug-In . SVG Version: 6.00 Build 0)  -->
<svg version="1.1" id="Calque_1" xmlns="http://www.w3.org/2000/svg" xmlns:xlink="http://www.w3.org/1999/xlink" x="0px" y="0px"
	 viewBox="0 0 1024 1024" style="enable-background:new 0 0 1024 1024;" xml:space="preserve">
<style type="text/css">
	.st0{display:none;}
	.st1{display:inline;}
	.st2{fill:#DCDCDC;}
	.st3{fill:#155799;}
	.st4{fill:#FFFFFF;}
	.st5{fill:#155799;stroke:#FFFFFF;stroke-width:16;stroke-linecap:round;stroke-miterlimit:10;}
	.st6{fill:#124B8B;}
	.st7{fill:#155799;stroke:#FFFFFF;stroke-width:14.652;stroke-linecap:round;stroke-miterlimit:10;}
	.st8{fill:#EF5E47;}
	.st9{fill:#CF5643;}
	.st10{fill:#F1F1F2;stroke:#5E80BF;stroke-width:20;stroke-linecap:round;stroke-miterlimit:10;}
	.st11{fill:#5675AF;}
	.st12{fill:#5E80BF;}
	.st13{display:inline;fill:#F1F1F2;stroke:#FFFFFF;stroke-width:8.794;stroke-miterlimit:10;}
	.st14{display:inline;fill:#4DB748;}
</style>
<g id="new" class="st0">
	<g class="st1">
		<path class="st2" d="M978.7,739.5H872.5V390.4v-48.8l-251-251h-94.1H215.2c-10.4,0-19,8.5-19,19v821.7c0,10.4,8.5,19,19,19h548.2
			v4.4h95.2v-5.2c7.9-2.3,13.8-9.6,13.8-18.2v-96.6h106.3V739.5z"/>
		<path class="st3" d="M855.9,373.9v540.9c0,10.4-8.5,19-19,19H198.7c-10.4,0-19-8.5-19-19V93.1c0-10.4,8.5-19,19-19h312.1h94.1
			l251,251L855.9,373.9L855.9,373.9z"/>
		<path class="st4" d="M749.2,325.1H623.9c-10.4,0-19-8.5-19-19V199.6V74.1l251,251H749.2z"/>
		<polygon class="st5" points="963.9,724.6 843.8,724.6 843.8,604.6 748.6,604.6 748.6,724.6 628.6,724.6 628.6,819.8 748.6,819.8 
			748.6,939.8 843.8,939.8 843.8,819.8 963.9,819.8 		"/>
		<polygon class="st6" points="628.6,325.1 854.8,325.1 854.8,551.3 		"/>
	</g>
</g>
<g id="open" class="st0">
	<g class="st1">
		<path class="st2" d="M822.5,824.9c6.8,0,11.6-5.5,10.6-12.2l-69-495.7c-0.9-6.7-7.2-12.2-14-12.2H368c-6.8,0-15.7-4.4-19.8-9.8
			l-34-44.7c-4.1-5.4-13-9.8-19.8-9.8H116.7c-6.8,0-14.5,5.1-17.3,11.3l-22,50.2c-2.7,6.2-4.6,16.8-4.2,23.6l28.4,487
			c0.4,6.8,6.3,12.3,13,12.3L822.5,824.9L822.5,824.9z"/>
		<path class="st3" d="M809.3,816.9c6.8,0,11.6-5.5,10.6-12.2l-69-495.7c-0.9-6.7-7.2-12.2-14-12.2H354.8c-6.8,0-15.7-4.4-19.8-9.8
			l-34-44.7c-4.1-5.4-13-9.8-19.8-9.8H103.5c-6.8,0-14.5,5.1-17.3,11.3l-22,50.2c-2.7,6.2-4.6,16.8-4.2,23.6l28.4,487
			c0.4,6.8,6.3,12.3,13,12.3L809.3,816.9L809.3,816.9z"/>
		<path class="st6" d="M809.3,816.9c6.8,0,6.9-1,0.2-2.2l-523-92.5c-6.7-1.2-15.7-6.4-20.2-11.5L81.9,496.4c-4.4-5.2-7.8-3.8-7.5,3
			l14,305.3c0.3,6.8,6.1,12.3,12.9,12.3L809.3,816.9L809.3,816.9z"/>
		<polygon class="st7" points="622.7,250.3 498.2,125.8 373.7,250.3 447,250.3 447,441.1 549.5,441.1 549.5,250.3 		"/>
		<path class="st4" d="M812.1,816.9c6.8,0,14.2-5.2,16.4-11.6l145.6-418.6c2.2-6.4-1.5-11.7-8.3-11.7H259c-6.8,0-14,5.3-16.2,11.7
			L105.7,805.2c-2.1,6.5,1.7,11.7,8.5,11.7H812.1z"/>
	</g>
</g>
<g id="save" class="st0">
	<g class="st1">
		<rect x="140.5" y="92.9" class="st2" width="789.8" height="853"/>
		<rect x="125.7" y="78.1" class="st3" width="789.8" height="853"/>
		<rect x="254.5" y="427.1" class="st4" width="532.2" height="393.7"/>
		<rect x="291.2" y="78" class="st4" width="458.9" height="240.8"/>
		<rect x="450" y="78" class="st3" width="206.6" height="174.3"/>
		<polygon class="st6" points="498.4,207.1 498.4,78 450,78 450,207.1 450,252.4 498.4,252.4 656.6,252.4 656.6,207.1 		"/>
	</g>
</g>
<g id="saveas" class="st0">
	<g class="st1">
		<rect x="63.1" y="132.8" class="st2" width="718" height="775.5"/>
		<rect x="49.5" y="119.3" class="st3" width="718" height="775.5"/>
		<rect x="166.6" y="436.6" class="st4" width="483.8" height="357.9"/>
		<rect x="199.9" y="119.3" class="st4" width="417.2" height="218.9"/>
		<rect x="344.3" y="119.3" class="st3" width="187.9" height="158.5"/>
		<path class="st3" d="M531.2,677.3c-2.5,2.5-6.6,2.5-9.2,0l-78.5-78.5c-2.5-2.5-2.5-6.6,0-9.2L885,148.4c2.5-2.5,6.6-2.5,9.2,0
			l78.5,78.4c2.5,2.5,2.5,6.6,0,9.2L531.2,677.3z"/>
		<path class="st3" d="M505.9,693.5c2.5,2.5,1.8,5.3-1.7,6.3l-104.5,28c-3.4,0.9-5.5-1.1-4.6-4.6l28-104.5c0.9-3.4,3.7-4.2,6.3-1.7
			L505.9,693.5z"/>
		<polygon class="st6" points="650.4,558.1 767.5,441 767.5,499.3 650.4,615.5 		"/>
		<polygon class="st6" points="388.5,235.4 388.5,119.3 344.3,119.3 344.3,235.4 344.3,276.8 344.3,277.7 532.1,277.7 532.1,235.4 
					"/>
	</g>
</g>
<g id="undo" class="st0">
	<g class="st1">
		<path class="st2" d="M954.3,517.3c0-241.3-195.6-437-437-437s-437,195.6-437,437c0,241.3,195.6,437,437,437
			S954.3,758.7,954.3,517.3"/>
		<path class="st3" d="M943.6,506.7c0-241.3-195.6-437-437-437s-437,195.6-437,437c0,241.3,195.6,437,437,437S943.6,748,943.6,506.7
			"/>
		<g>
			<path class="st6" d="M744.9,767l-85.2-85.2c68-68,68-178.6,0-246.6s-178.6-67.9-246.6,0l-85.2-85.3c115-114.9,302-115,417,0
				C859.8,464.9,859.8,652,744.9,767z"/>
		</g>
		<path class="st4" d="M704.1,330.5c-104.4-104.4-271.2-108.6-381-13.3l-73.3-73.3l0.1,209h208.9L387,381.1
			c74.3-60.2,184-55.8,253.1,13.3c73.9,73.9,73.9,194,0,267.9l63.9,63.9C813.2,617.1,813.2,439.6,704.1,330.5z"/>
	</g>
</g>
<g id="redo" class="st0">
	<g class="st1">
		<path class="st2" d="M86.3,517.3c0-241.3,195.6-437,437-437s437,195.6,437,437c0,241.3-195.6,437-437,437S86.3,758.7,86.3,517.3"
			/>
		<path class="st3" d="M75.1,506.7c0-241.3,195.6-437,437-437s437,195.6,437,437c0,241.3-195.6,437-437,437S75.1,748,75.1,506.7"/>
		<g>
			<path class="st6" d="M273.8,767l85.2-85.2c-68-68-68-178.6,0-246.6s178.6-67.9,246.6,0l85.2-85.3c-115-114.9-302-115-417,0
				C158.9,464.9,158.9,652,273.8,767z"/>
		</g>
		<path class="st4" d="M314.6,330.5c104.4-104.4,271.2-108.6,381-13.3l73.3-73.3l-0.1,209H559.9l71.8-71.8
			c-74.3-60.2-184-55.8-253.1,13.3c-73.9,73.9-73.9,194,0,267.9l-63.9,63.9C205.5,617.1,205.5,439.6,314.6,330.5z"/>
	</g>
</g>
<g id="play" class="st0">
	<g class="st1">
		<path class="st2" d="M72.5,508.7C72.5,257.1,276.4,53.2,528,53.2s455.5,203.9,455.5,455.5S779.5,964.2,528,964.2
			C276.4,964.2,72.5,760.2,72.5,508.7"/>
		<path class="st3" d="M61.8,498c0-251.6,203.9-455.5,455.5-455.5S972.8,246.4,972.8,498s-204,455.5-455.5,455.5
			C265.7,953.5,61.8,749.5,61.8,498"/>
		<polygon class="st6" points="363.9,257.4 826.7,524.6 363.9,791.8 		"/>
		<polygon class="st4" points="349.2,242.7 812,509.9 349.2,777.1 		"/>
	</g>
</g>
<g id="stop" class="st0">
	<g class="st1">
		<path class="st2" d="M41.9,510C41.9,250.4,252.4,39.9,512,39.9S982.1,250.4,982.1,510S771.7,980.1,512,980.1
			C252.4,980.1,41.9,769.6,41.9,510"/>
		<path class="st8" d="M31.2,499.3c0-259.6,210.5-470.1,470.1-470.1s470.1,210.5,470.1,470.1S761,969.4,501.3,969.4
			C241.7,969.4,31.2,758.9,31.2,499.3"/>
		<rect x="290" y="288" class="st9" width="470.1" height="470.1"/>
		<rect x="266.3" y="264.3" class="st4" width="470.1" height="470.1"/>
	</g>
</g>
<g id="advanced" class="st0">
	<g class="st1">
		<circle class="st2" cx="518" cy="521.6" r="472"/>
		<circle class="st10" cx="505.9" cy="502.4" r="472"/>
		<g>
			<polygon class="st11" points="256.6,322.2 515.2,204.4 776.4,306.9 526.5,401.2 			"/>
			<path class="st11" d="M515.2,660.8c0,0,69,2.3,112.6-34.4c62-2.3,110.2,112.4,105.6,153.8c-57.4,27.5-218.1,32.4-218.1,32.4
				s-160.8-4.9-218.1-32.4c-4.6-41.3,43.6-156.1,105.6-153.8C446.2,663.1,515.2,660.8,515.2,660.8"/>
			<path class="st11" d="M528.2,444.1L374,398.9c-3.8,15-6.5,30.5-6.5,46.9c0,92.9,66.1,168.2,147.7,168.2s147.7-75.3,147.7-168.2
				c0-17.5-3-34-7.3-49.8L528.2,444.1z"/>
			<polygon class="st11" points="744.3,532.6 725.1,505.5 705.8,543.4 705.8,377.8 744.3,362.8 			"/>
		</g>
		<g>
			<polygon class="st12" points="246.1,316 504.6,198.3 765.8,300.8 516,395.1 			"/>
			<path class="st12" d="M504.7,654.7c0,0,69,2.3,112.6-34.4c62-2.3,110.2,112.4,105.6,153.8c-57.4,27.5-218.1,32.4-218.1,32.4
				s-160.8-4.9-218.1-32.4c-4.6-41.3,43.6-156.1,105.6-153.8C435.7,657,504.7,654.7,504.7,654.7"/>
			<path class="st12" d="M517.6,438l-154.1-45.1c-3.8,15-6.5,30.5-6.5,46.9c0,92.9,66.1,168.2,147.7,168.2s147.7-75.3,147.7-168.2
				c0-17.5-3-34-7.3-49.8L517.6,438z"/>
			<polygon class="st12" points="733.8,526.5 714.5,499.4 695.3,537.3 695.3,371.7 733.8,356.6 			"/>
		</g>
	</g>
</g>
<g id="cadre" class="st0">
	<path class="st13" d="M947.8,730.8H76.2c-23.4,0-42.4-19-42.4-42.4V335.7c0-23.4,19-42.5,42.4-42.5h871.6c23.4,0,42.5,19,42.5,42.5
		v352.6C990.3,711.8,971.3,730.8,947.8,730.8z"/>
</g>
<g id="screenshot" class="st0">
	<g class="st1">
		<path class="st2" d="M60.3,526.1c-2.6-252.3,199.8-459,452.2-461.7c252.3-2.6,459,199.8,461.7,452.2
			c2.6,252.3-199.8,459-452.2,461.7S62.9,778.4,60.3,526.1"/>
		<path class="st3" d="M41.6,507.4C39,255.1,241.4,48.4,493.8,45.7c252.3-2.6,459,199.8,461.7,452.2
			c2.6,252.3-199.8,459-452.2,461.7C250.9,962.2,44.2,759.7,41.6,507.4"/>
		<g>
			<path class="st6" d="M519.5,397.8C435.1,398.6,367.1,468,368,552.5S438.3,704.9,522.7,704s152.5-70.3,151.6-154.7
				C673.5,464.8,604,396.9,519.5,397.8z M522.5,688.4c-75.8,0.8-138.1-60.3-138.9-136.1s60.2-138.1,136-138.9
				c75.9-0.8,138.2,60.3,139,136.1C659.5,625.3,598.4,687.6,522.5,688.4z"/>
			<path class="st6" d="M520.1,453.7c-53.5,0.6-96.7,44.6-96.1,98.2s44.6,96.8,98.1,96.2c53.7-0.6,96.8-44.6,96.3-98.3
				C617.9,496.3,573.8,453.1,520.1,453.7z"/>
			<path class="st6" d="M761.4,321l-0.2-19.5c-0.2-22.2-18.5-40.1-40.7-39.8l-51.4,0.5c-22.1,0.2-40.1,18.5-39.8,40.7l0.2,18.3
				l-341.3,3.5c-35.9,0.4-64.7,29.8-64.4,65.7l3.2,311.9c0.4,35.9,29.8,64.7,65.7,64.4l461.2-4.8c35.9-0.4,64.7-29.8,64.4-65.7
				l-3.2-311.9C814.8,352.4,791.6,326.3,761.4,321z M522.9,725.3c-96.2,1-175.2-76.5-176.2-172.6c-1-96.2,76.4-175.3,172.6-176.3
				S694.6,452.8,695.6,549C696.6,645.3,619.1,724.3,522.9,725.3z"/>
		</g>
		<g>
			<path class="st4" d="M497.1,375.8c-84.4,0.9-152.4,70.3-151.5,154.7c0.9,84.5,70.3,152.4,154.7,151.5s152.5-70.3,151.6-154.7
				C651,442.9,581.5,374.9,497.1,375.8z M500.1,666.4c-75.8,0.8-138.1-60.3-138.9-136.1s60.2-138.1,136-138.9
				c75.9-0.8,138.2,60.3,139,136.1C637.1,603.3,576,665.7,500.1,666.4z"/>
			<path class="st4" d="M497.7,431.7c-53.5,0.6-96.7,44.6-96.1,98.2s44.6,96.8,98.1,96.2c53.7-0.6,96.8-44.6,96.3-98.3
				C595.4,474.3,551.3,431.1,497.7,431.7z"/>
			<path class="st4" d="M739,299l-0.2-19.5c-0.2-22.2-18.5-40.1-40.7-39.8l-51.4,0.5c-22.1,0.2-40.1,18.5-39.8,40.7l0.2,18.3
				l-341.3,3.5c-35.9,0.4-64.7,29.8-64.4,65.7l3.2,311.9c0.4,35.9,29.8,64.7,65.7,64.4l461.2-4.8c35.9-0.4,64.7-29.8,64.4-65.7
				l-3.2-311.9C792.3,330.4,769.2,304.3,739,299z M500.5,703.4c-96.2,1-175.2-76.5-176.2-172.6c-1-96.2,76.4-175.3,172.6-176.3
				s175.3,76.4,176.3,172.6C674.2,623.3,596.7,702.4,500.5,703.4z"/>
		</g>
	</g>
</g>
<g id="info">
	<g>
		<path class="st3" d="M42.8,506.7C40.2,255.4,241.8,49.6,493.1,47s457.1,199,459.7,450.3c2.6,251.3-199,457.2-450.3,459.8
			C251.3,959.7,45.4,758,42.8,506.7"/>
		<g>
			<path class="st6" d="M475.3,388.9h71.4c1.7,0,3.1,1.4,3.1,3.1v385.1c0,1.7-1.4,3.1-3.1,3.1h-71.4c-1.7,0-3.1-1.4-3.1-3.1V392
				C472.1,390.3,473.5,388.9,475.3,388.9z"/>
			<circle class="st6" cx="511.9" cy="289.3" r="43.1"/>
		</g>
		<g>
			<path class="st4" d="M462.1,375.8h71.4c1.7,0,3.1,1.4,3.1,3.1v383.2c0,1.7-1.4,3.1-3.1,3.1h-71.4c-1.7,0-3.1-1.4-3.1-3.1V378.9
				C459,377.2,460.4,375.8,462.1,375.8z"/>
			<circle class="st4" cx="498.8" cy="276.2" r="43.1"/>
		</g>
	</g>
</g>
<g id="success" class="st0">
	<path class="st14" d="M870.3,151.2C770.7,51.6,640.2,1.8,509.7,1.8s-261,49.7-360.6,149.3C-50,350.3-50,673.3,149.1,872.4
		c99.6,99.5,230.1,149.3,360.6,149.3s261-49.8,360.6-149.3C1069.5,673.3,1069.5,350.3,870.3,151.2z M814,816
		c-81.3,81.3-189.3,126-304.3,126s-223-44.8-304.3-126c-167.7-167.8-167.7-440.7,0-608.5c81.3-81.3,189.3-126,304.3-126
		s223,44.8,304.3,126C981.7,375.3,981.7,648.3,814,816z"/>
	<polygon class="st14" points="439.9,575.8 311.5,445.3 218.5,538.4 218.5,538.3 437.6,757.5 807.9,387.2 723.3,301.2 	"/>
</g>
</svg>
